<svg xmlns="http://www.w3.org/2000/svg" xmlns:xlink="http://www.w3.org/1999/xlink" width="11" height="13" version="1.1" viewBox="0 0 11 13"><title>_Assets/Inline/Pause</title><desc>Created with Sketch.</desc><g id="Media-Control-Symbols" fill="none" fill-rule="evenodd" stroke="none" stroke-width="1"><g id="_Assets/Inline/Pause" fill="#000"><path id="Combined-Shape" d="M7,0.998502329 C7,0.44704472 7.44335318,0 8.0093689,0 L9.9906311,0 C10.5480902,0 11,0.447489426 11,0.998502329 L11,12.0014977 C11,12.5529553 10.5566468,13 9.9906311,13 L8.0093689,13 C7.45190985,13 7,12.5525106 7,12.0014977 L7,0.998502329 Z M0,0.998502329 C0,0.44704472 0.443353176,0 1.0093689,0 L2.9906311,0 C3.54809015,0 4,0.447489426 4,0.998502329 L4,12.0014977 C4,12.5529553 3.55664682,13 2.9906311,13 L1.0093689,13 C0.451909848,13 0,12.5525106 0,12.0014977 L0,0.998502329 Z"/></g></g></svg>