<svg xmlns="http://www.w3.org/2000/svg" xmlns:xlink="http://www.w3.org/1999/xlink" width="16" height="13" version="1.1" viewBox="0 0 16 13"><title>_Assets/Inline/Airplay</title><desc>Created with Sketch.</desc><g id="Media-Control-Symbols" fill="none" fill-rule="evenodd" stroke="none" stroke-width="1"><g id="_Assets/Inline/Airplay" fill="#000"><path id="iOS/Fullscreen/Airplay" d="M7.59025333,7.14658689 C7.79180449,6.95310577 8.11449344,6.9491795 8.32013464,7.14658689 L13.6852646,12.2968988 C14.0797511,12.6755902 13.9558872,12.9825802 13.3989154,12.9825802 L2.51147254,12.9825802 C1.95883979,12.9825802 1.83927849,12.6672946 2.22512336,12.2968988 L7.59025333,7.14658689 Z"/><path id="Combined-Shape" d="M13,10 L14.9991283,10 C15.5553691,10 16,9.55434533 16,9.00460243 L16,0.995397568 C16,0.455664396 15.5518945,0 14.9991283,0 L1.00087166,0 C0.444630861,0 0,0.445654671 0,0.995397568 L0,9.00460243 C0,9.5443356 0.448105505,10 1.00087166,10 L3,10 L4,9 L1.49826741,9 C1.22308192,9 1,8.76920319 1,8.49956417 L1,1.50043583 C1,1.22405275 1.21990657,1 1.49826741,1 L14.5017326,1 C14.7769181,1 15,1.23079681 15,1.50043583 L15,8.49956417 C15,8.77594725 14.7800934,9 14.5017326,9 L12,9 L13,10 Z"/></g></g></svg>